<mxfile host="app.diagrams.net" agent="Mozilla/5.0 (Windows NT 10.0; Win64; x64) AppleWebKit/537.36 (KHTML, like Gecko) Chrome/129.0.0.0 Safari/537.36" version="24.7.16">
  <diagram name="Página-1" id="V4BXFeCtd6GjRzAJDH_8">
    <mxGraphModel dx="926" dy="493" grid="1" gridSize="10" guides="1" tooltips="1" connect="1" arrows="1" fold="1" page="1" pageScale="1" pageWidth="827" pageHeight="1169" math="0" shadow="0">
      <root>
        <mxCell id="0" />
        <mxCell id="1" parent="0" />
        <mxCell id="3zMYQEavqULO8Xub2EQt-9" style="edgeStyle=orthogonalEdgeStyle;rounded=0;orthogonalLoop=1;jettySize=auto;html=1;exitX=0.5;exitY=1;exitDx=0;exitDy=0;exitPerimeter=0;entryX=0.5;entryY=0;entryDx=0;entryDy=0;" edge="1" parent="1" source="3zMYQEavqULO8Xub2EQt-2" target="3zMYQEavqULO8Xub2EQt-3">
          <mxGeometry relative="1" as="geometry" />
        </mxCell>
        <mxCell id="3zMYQEavqULO8Xub2EQt-2" value="Inicio" style="strokeWidth=2;html=1;shape=mxgraph.flowchart.start_1;whiteSpace=wrap;" vertex="1" parent="1">
          <mxGeometry x="100" y="50" width="70" height="20" as="geometry" />
        </mxCell>
        <mxCell id="3zMYQEavqULO8Xub2EQt-10" style="edgeStyle=orthogonalEdgeStyle;rounded=0;orthogonalLoop=1;jettySize=auto;html=1;exitX=0.5;exitY=1;exitDx=0;exitDy=0;entryX=0.5;entryY=0;entryDx=0;entryDy=0;" edge="1" parent="1" source="3zMYQEavqULO8Xub2EQt-3" target="3zMYQEavqULO8Xub2EQt-4">
          <mxGeometry relative="1" as="geometry" />
        </mxCell>
        <mxCell id="3zMYQEavqULO8Xub2EQt-3" value="Inicio de sesión del paciente." style="rounded=1;whiteSpace=wrap;html=1;absoluteArcSize=1;arcSize=14;strokeWidth=2;" vertex="1" parent="1">
          <mxGeometry x="80" y="100" width="110" height="40" as="geometry" />
        </mxCell>
        <mxCell id="3zMYQEavqULO8Xub2EQt-11" style="edgeStyle=orthogonalEdgeStyle;rounded=0;orthogonalLoop=1;jettySize=auto;html=1;exitX=0.5;exitY=1;exitDx=0;exitDy=0;entryX=0.5;entryY=0;entryDx=0;entryDy=0;" edge="1" parent="1" source="3zMYQEavqULO8Xub2EQt-4" target="3zMYQEavqULO8Xub2EQt-5">
          <mxGeometry relative="1" as="geometry" />
        </mxCell>
        <mxCell id="3zMYQEavqULO8Xub2EQt-4" value="Navegar al sistema de citas." style="rounded=1;whiteSpace=wrap;html=1;absoluteArcSize=1;arcSize=14;strokeWidth=2;" vertex="1" parent="1">
          <mxGeometry x="85" y="180" width="100" height="40" as="geometry" />
        </mxCell>
        <mxCell id="3zMYQEavqULO8Xub2EQt-12" style="edgeStyle=orthogonalEdgeStyle;rounded=0;orthogonalLoop=1;jettySize=auto;html=1;exitX=0.5;exitY=1;exitDx=0;exitDy=0;entryX=0.5;entryY=0;entryDx=0;entryDy=0;" edge="1" parent="1" source="3zMYQEavqULO8Xub2EQt-5" target="3zMYQEavqULO8Xub2EQt-6">
          <mxGeometry relative="1" as="geometry" />
        </mxCell>
        <mxCell id="3zMYQEavqULO8Xub2EQt-5" value="Seleccionar médico y fecha." style="rounded=1;whiteSpace=wrap;html=1;absoluteArcSize=1;arcSize=14;strokeWidth=2;" vertex="1" parent="1">
          <mxGeometry x="85" y="250" width="100" height="40" as="geometry" />
        </mxCell>
        <mxCell id="3zMYQEavqULO8Xub2EQt-6" value="Confirmación de cita." style="rounded=1;whiteSpace=wrap;html=1;absoluteArcSize=1;arcSize=14;strokeWidth=2;" vertex="1" parent="1">
          <mxGeometry x="85" y="330" width="100" height="40" as="geometry" />
        </mxCell>
        <mxCell id="3zMYQEavqULO8Xub2EQt-7" value="Cambio de estatus de cita" style="rounded=1;whiteSpace=wrap;html=1;absoluteArcSize=1;arcSize=14;strokeWidth=2;" vertex="1" parent="1">
          <mxGeometry x="90" y="480" width="90" height="40" as="geometry" />
        </mxCell>
        <mxCell id="3zMYQEavqULO8Xub2EQt-14" value="Fin" style="strokeWidth=2;html=1;shape=mxgraph.flowchart.start_1;whiteSpace=wrap;" vertex="1" parent="1">
          <mxGeometry x="100" y="550" width="70" height="20" as="geometry" />
        </mxCell>
        <mxCell id="3zMYQEavqULO8Xub2EQt-16" style="edgeStyle=orthogonalEdgeStyle;rounded=0;orthogonalLoop=1;jettySize=auto;html=1;exitX=0.5;exitY=1;exitDx=0;exitDy=0;entryX=0.5;entryY=0;entryDx=0;entryDy=0;entryPerimeter=0;" edge="1" parent="1" source="3zMYQEavqULO8Xub2EQt-7" target="3zMYQEavqULO8Xub2EQt-14">
          <mxGeometry relative="1" as="geometry" />
        </mxCell>
        <mxCell id="3zMYQEavqULO8Xub2EQt-19" style="edgeStyle=orthogonalEdgeStyle;rounded=0;orthogonalLoop=1;jettySize=auto;html=1;exitX=0.5;exitY=1;exitDx=0;exitDy=0;exitPerimeter=0;entryX=0.5;entryY=0;entryDx=0;entryDy=0;" edge="1" parent="1" source="3zMYQEavqULO8Xub2EQt-17" target="3zMYQEavqULO8Xub2EQt-7">
          <mxGeometry relative="1" as="geometry" />
        </mxCell>
        <mxCell id="3zMYQEavqULO8Xub2EQt-20" style="edgeStyle=orthogonalEdgeStyle;rounded=0;orthogonalLoop=1;jettySize=auto;html=1;exitX=1;exitY=0.5;exitDx=0;exitDy=0;exitPerimeter=0;entryX=1;entryY=0.5;entryDx=0;entryDy=0;" edge="1" parent="1" source="3zMYQEavqULO8Xub2EQt-17" target="3zMYQEavqULO8Xub2EQt-4">
          <mxGeometry relative="1" as="geometry" />
        </mxCell>
        <mxCell id="3zMYQEavqULO8Xub2EQt-17" value="Confirmada" style="strokeWidth=2;html=1;shape=mxgraph.flowchart.decision;whiteSpace=wrap;" vertex="1" parent="1">
          <mxGeometry x="87" y="400" width="96" height="50" as="geometry" />
        </mxCell>
        <mxCell id="3zMYQEavqULO8Xub2EQt-18" style="edgeStyle=orthogonalEdgeStyle;rounded=0;orthogonalLoop=1;jettySize=auto;html=1;exitX=0.5;exitY=1;exitDx=0;exitDy=0;entryX=0.5;entryY=0;entryDx=0;entryDy=0;entryPerimeter=0;" edge="1" parent="1" source="3zMYQEavqULO8Xub2EQt-6" target="3zMYQEavqULO8Xub2EQt-17">
          <mxGeometry relative="1" as="geometry" />
        </mxCell>
        <mxCell id="3zMYQEavqULO8Xub2EQt-21" value="si&lt;span style=&quot;color: rgba(0, 0, 0, 0); font-family: monospace; font-size: 0px; text-align: start; text-wrap: nowrap;&quot;&gt;%3CmxGraphModel%3E%3Croot%3E%3CmxCell%20id%3D%220%22%2F%3E%3CmxCell%20id%3D%221%22%20parent%3D%220%22%2F%3E%3CmxCell%20id%3D%222%22%20value%3D%22Inicio%22%20style%3D%22strokeWidth%3D2%3Bhtml%3D1%3Bshape%3Dmxgraph.flowchart.start_1%3BwhiteSpace%3Dwrap%3B%22%20vertex%3D%221%22%20parent%3D%221%22%3E%3CmxGeometry%20x%3D%22160%22%20y%3D%2250%22%20width%3D%2270%22%20height%3D%2220%22%20as%3D%22geometry%22%2F%3E%3C%2FmxCell%3E%3C%2Froot%3E%3C%2FmxGraphModel%3E&lt;/span&gt;" style="text;html=1;align=center;verticalAlign=middle;whiteSpace=wrap;rounded=0;" vertex="1" parent="1">
          <mxGeometry x="125" y="450" width="60" height="30" as="geometry" />
        </mxCell>
        <mxCell id="3zMYQEavqULO8Xub2EQt-22" value="No" style="text;html=1;align=center;verticalAlign=middle;whiteSpace=wrap;rounded=0;" vertex="1" parent="1">
          <mxGeometry x="190" y="400" width="60" height="30" as="geometry" />
        </mxCell>
        <mxCell id="3zMYQEavqULO8Xub2EQt-23" value="&lt;font style=&quot;font-size: 23px;&quot;&gt;Agendar cita&lt;/font&gt;" style="text;html=1;align=center;verticalAlign=middle;whiteSpace=wrap;rounded=0;" vertex="1" parent="1">
          <mxGeometry x="320" width="150" height="30" as="geometry" />
        </mxCell>
        <mxCell id="3zMYQEavqULO8Xub2EQt-33" style="edgeStyle=orthogonalEdgeStyle;rounded=0;orthogonalLoop=1;jettySize=auto;html=1;exitX=0.5;exitY=1;exitDx=0;exitDy=0;entryX=0.5;entryY=0;entryDx=0;entryDy=0;" edge="1" parent="1" source="3zMYQEavqULO8Xub2EQt-28" target="3zMYQEavqULO8Xub2EQt-30">
          <mxGeometry relative="1" as="geometry" />
        </mxCell>
        <mxCell id="3zMYQEavqULO8Xub2EQt-28" value="" style="ellipse;whiteSpace=wrap;html=1;aspect=fixed;" vertex="1" parent="1">
          <mxGeometry x="378" y="70" width="20" height="20" as="geometry" />
        </mxCell>
        <mxCell id="3zMYQEavqULO8Xub2EQt-29" value="" style="ellipse;whiteSpace=wrap;html=1;aspect=fixed;" vertex="1" parent="1">
          <mxGeometry x="378" y="630" width="20" height="20" as="geometry" />
        </mxCell>
        <mxCell id="3zMYQEavqULO8Xub2EQt-34" style="edgeStyle=orthogonalEdgeStyle;rounded=0;orthogonalLoop=1;jettySize=auto;html=1;exitX=0.5;exitY=1;exitDx=0;exitDy=0;entryX=0.5;entryY=0;entryDx=0;entryDy=0;" edge="1" parent="1" source="3zMYQEavqULO8Xub2EQt-30" target="3zMYQEavqULO8Xub2EQt-31">
          <mxGeometry relative="1" as="geometry" />
        </mxCell>
        <mxCell id="3zMYQEavqULO8Xub2EQt-30" value="Iniciar sesion" style="rounded=1;whiteSpace=wrap;html=1;" vertex="1" parent="1">
          <mxGeometry x="345" y="110" width="86" height="30" as="geometry" />
        </mxCell>
        <mxCell id="3zMYQEavqULO8Xub2EQt-35" style="edgeStyle=orthogonalEdgeStyle;rounded=0;orthogonalLoop=1;jettySize=auto;html=1;exitX=0.5;exitY=1;exitDx=0;exitDy=0;" edge="1" parent="1" source="3zMYQEavqULO8Xub2EQt-31" target="3zMYQEavqULO8Xub2EQt-32">
          <mxGeometry relative="1" as="geometry" />
        </mxCell>
        <mxCell id="3zMYQEavqULO8Xub2EQt-31" value="verificar credenciales" style="rounded=1;whiteSpace=wrap;html=1;" vertex="1" parent="1">
          <mxGeometry x="345" y="170" width="86" height="30" as="geometry" />
        </mxCell>
        <mxCell id="3zMYQEavqULO8Xub2EQt-37" style="edgeStyle=orthogonalEdgeStyle;rounded=0;orthogonalLoop=1;jettySize=auto;html=1;exitX=0.5;exitY=1;exitDx=0;exitDy=0;exitPerimeter=0;entryX=0.5;entryY=0;entryDx=0;entryDy=0;" edge="1" parent="1" source="3zMYQEavqULO8Xub2EQt-32" target="3zMYQEavqULO8Xub2EQt-36">
          <mxGeometry relative="1" as="geometry" />
        </mxCell>
        <mxCell id="3zMYQEavqULO8Xub2EQt-38" style="edgeStyle=orthogonalEdgeStyle;rounded=0;orthogonalLoop=1;jettySize=auto;html=1;exitX=1;exitY=0.5;exitDx=0;exitDy=0;exitPerimeter=0;entryX=1;entryY=0.5;entryDx=0;entryDy=0;" edge="1" parent="1" source="3zMYQEavqULO8Xub2EQt-32" target="3zMYQEavqULO8Xub2EQt-31">
          <mxGeometry relative="1" as="geometry" />
        </mxCell>
        <mxCell id="3zMYQEavqULO8Xub2EQt-32" value="credenciales correctas?" style="strokeWidth=2;html=1;shape=mxgraph.flowchart.decision;whiteSpace=wrap;" vertex="1" parent="1">
          <mxGeometry x="340" y="230" width="96" height="50" as="geometry" />
        </mxCell>
        <mxCell id="3zMYQEavqULO8Xub2EQt-36" value="Seleccionar opcion de citas" style="rounded=1;whiteSpace=wrap;html=1;" vertex="1" parent="1">
          <mxGeometry x="345" y="310" width="86" height="30" as="geometry" />
        </mxCell>
        <mxCell id="3zMYQEavqULO8Xub2EQt-42" style="edgeStyle=orthogonalEdgeStyle;rounded=0;orthogonalLoop=1;jettySize=auto;html=1;exitX=0.5;exitY=1;exitDx=0;exitDy=0;entryX=0.5;entryY=0;entryDx=0;entryDy=0;" edge="1" parent="1" source="3zMYQEavqULO8Xub2EQt-39" target="3zMYQEavqULO8Xub2EQt-40">
          <mxGeometry relative="1" as="geometry" />
        </mxCell>
        <mxCell id="3zMYQEavqULO8Xub2EQt-39" value="Seleccionar medico" style="rounded=1;whiteSpace=wrap;html=1;" vertex="1" parent="1">
          <mxGeometry x="345" y="370" width="86" height="30" as="geometry" />
        </mxCell>
        <mxCell id="3zMYQEavqULO8Xub2EQt-45" style="edgeStyle=orthogonalEdgeStyle;rounded=0;orthogonalLoop=1;jettySize=auto;html=1;exitX=0.5;exitY=1;exitDx=0;exitDy=0;entryX=0.5;entryY=0;entryDx=0;entryDy=0;" edge="1" parent="1" source="3zMYQEavqULO8Xub2EQt-40" target="3zMYQEavqULO8Xub2EQt-44">
          <mxGeometry relative="1" as="geometry" />
        </mxCell>
        <mxCell id="3zMYQEavqULO8Xub2EQt-40" value="Seleccionar fecha" style="rounded=1;whiteSpace=wrap;html=1;" vertex="1" parent="1">
          <mxGeometry x="345" y="420" width="86" height="30" as="geometry" />
        </mxCell>
        <mxCell id="3zMYQEavqULO8Xub2EQt-41" style="edgeStyle=orthogonalEdgeStyle;rounded=0;orthogonalLoop=1;jettySize=auto;html=1;exitX=0.5;exitY=1;exitDx=0;exitDy=0;" edge="1" parent="1" source="3zMYQEavqULO8Xub2EQt-36" target="3zMYQEavqULO8Xub2EQt-39">
          <mxGeometry relative="1" as="geometry" />
        </mxCell>
        <mxCell id="3zMYQEavqULO8Xub2EQt-43" value="Usuario" style="text;html=1;align=center;verticalAlign=middle;whiteSpace=wrap;rounded=0;" vertex="1" parent="1">
          <mxGeometry x="358" y="45" width="60" height="30" as="geometry" />
        </mxCell>
        <mxCell id="3zMYQEavqULO8Xub2EQt-48" style="edgeStyle=orthogonalEdgeStyle;rounded=0;orthogonalLoop=1;jettySize=auto;html=1;exitX=1;exitY=0.5;exitDx=0;exitDy=0;entryX=0;entryY=0.5;entryDx=0;entryDy=0;" edge="1" parent="1" source="3zMYQEavqULO8Xub2EQt-44" target="3zMYQEavqULO8Xub2EQt-46">
          <mxGeometry relative="1" as="geometry" />
        </mxCell>
        <mxCell id="3zMYQEavqULO8Xub2EQt-44" value="Agendar cita" style="rounded=1;whiteSpace=wrap;html=1;" vertex="1" parent="1">
          <mxGeometry x="345" y="470" width="86" height="30" as="geometry" />
        </mxCell>
        <mxCell id="3zMYQEavqULO8Xub2EQt-50" style="edgeStyle=orthogonalEdgeStyle;rounded=0;orthogonalLoop=1;jettySize=auto;html=1;exitX=1;exitY=0.5;exitDx=0;exitDy=0;entryX=0;entryY=0.5;entryDx=0;entryDy=0;" edge="1" parent="1" source="3zMYQEavqULO8Xub2EQt-46" target="3zMYQEavqULO8Xub2EQt-49">
          <mxGeometry relative="1" as="geometry" />
        </mxCell>
        <mxCell id="3zMYQEavqULO8Xub2EQt-46" value="Recibe cita" style="rounded=1;whiteSpace=wrap;html=1;" vertex="1" parent="1">
          <mxGeometry x="480" y="470" width="86" height="30" as="geometry" />
        </mxCell>
        <mxCell id="3zMYQEavqULO8Xub2EQt-51" style="edgeStyle=orthogonalEdgeStyle;rounded=0;orthogonalLoop=1;jettySize=auto;html=1;exitX=0.5;exitY=0;exitDx=0;exitDy=0;entryX=1;entryY=0.25;entryDx=0;entryDy=0;" edge="1" parent="1" source="3zMYQEavqULO8Xub2EQt-49" target="3zMYQEavqULO8Xub2EQt-36">
          <mxGeometry relative="1" as="geometry" />
        </mxCell>
        <mxCell id="3zMYQEavqULO8Xub2EQt-54" style="edgeStyle=orthogonalEdgeStyle;rounded=0;orthogonalLoop=1;jettySize=auto;html=1;exitX=1;exitY=0.5;exitDx=0;exitDy=0;entryX=0;entryY=0.5;entryDx=0;entryDy=0;" edge="1" parent="1" source="3zMYQEavqULO8Xub2EQt-49" target="3zMYQEavqULO8Xub2EQt-53">
          <mxGeometry relative="1" as="geometry" />
        </mxCell>
        <mxCell id="3zMYQEavqULO8Xub2EQt-49" value="Confirmada" style="rhombus;whiteSpace=wrap;html=1;" vertex="1" parent="1">
          <mxGeometry x="590" y="452.5" width="80" height="65" as="geometry" />
        </mxCell>
        <mxCell id="3zMYQEavqULO8Xub2EQt-52" value="Doctor" style="text;html=1;align=center;verticalAlign=middle;whiteSpace=wrap;rounded=0;" vertex="1" parent="1">
          <mxGeometry x="520" y="270" width="60" height="30" as="geometry" />
        </mxCell>
        <mxCell id="3zMYQEavqULO8Xub2EQt-57" style="edgeStyle=orthogonalEdgeStyle;rounded=0;orthogonalLoop=1;jettySize=auto;html=1;exitX=0.5;exitY=1;exitDx=0;exitDy=0;entryX=1;entryY=0.5;entryDx=0;entryDy=0;" edge="1" parent="1" source="3zMYQEavqULO8Xub2EQt-53" target="3zMYQEavqULO8Xub2EQt-56">
          <mxGeometry relative="1" as="geometry" />
        </mxCell>
        <mxCell id="3zMYQEavqULO8Xub2EQt-53" value="Cambia estatus de cita" style="rounded=1;whiteSpace=wrap;html=1;" vertex="1" parent="1">
          <mxGeometry x="700" y="470" width="86" height="30" as="geometry" />
        </mxCell>
        <mxCell id="3zMYQEavqULO8Xub2EQt-55" value="Sistema" style="text;html=1;align=center;verticalAlign=middle;whiteSpace=wrap;rounded=0;" vertex="1" parent="1">
          <mxGeometry x="710" y="380" width="60" height="30" as="geometry" />
        </mxCell>
        <mxCell id="3zMYQEavqULO8Xub2EQt-59" style="edgeStyle=orthogonalEdgeStyle;rounded=0;orthogonalLoop=1;jettySize=auto;html=1;exitX=0.5;exitY=1;exitDx=0;exitDy=0;entryX=0.5;entryY=0;entryDx=0;entryDy=0;" edge="1" parent="1" source="3zMYQEavqULO8Xub2EQt-56" target="3zMYQEavqULO8Xub2EQt-29">
          <mxGeometry relative="1" as="geometry" />
        </mxCell>
        <mxCell id="3zMYQEavqULO8Xub2EQt-56" value="Recibe status" style="rounded=1;whiteSpace=wrap;html=1;" vertex="1" parent="1">
          <mxGeometry x="345" y="570" width="86" height="30" as="geometry" />
        </mxCell>
      </root>
    </mxGraphModel>
  </diagram>
</mxfile>
